<!-- ratio = 310:256 -->
<svg xmlns="http://www.w3.org/2000/svg" viewBox="0 0 75 65">
  <g id="SvgjsG1154" fill="#ffc7c7">
    <path xmlns="http://www.w3.org/2000/svg" transform="matrix(1, 0, 0, 1, -7.5, -12.5)" d="M63.3,13.4c-8.8,0-16.2,6.2-18.3,14.7c-2.1-8.5-9.5-14.7-18.3-14.7c-10.4,0-18.9,8.8-18.9,19.7  C7.8,55.9,45,76.6,45,76.6s37.2-20.7,37.2-43.4C82.2,22.2,73.7,13.4,63.3,13.4z M71.7,36.6c0,0.8-0.7,1.5-1.5,1.5H64v6.2  c0,0.8-0.7,1.5-1.5,1.5h-1.7c-0.8,0-1.5-0.7-1.5-1.5v-6.2H53c-0.8,0-1.5-0.7-1.5-1.5v-1.7c0-0.8,0.7-1.5,1.5-1.5h6.2v-6.2  c0-0.8,0.7-1.5,1.5-1.5h1.7c0.8,0,1.5,0.7,1.5,1.5v6.2h6.2c0.8,0,1.5,0.7,1.5,1.5V36.6z">
    </path>
  </g>
</svg>