<!-- ratio = 310:256 -->
<svg xmlns="http://www.w3.org/2000/svg" viewBox="0 0 300 110" className="css-1j8o68f">
  <defs id="SvgjsDefs1153"></defs>
  <g id="SvgjsG1155" transform="matrix(3, 0, 0, 3, 0, -30)" fill="#ffffff">
    <path d="M9.84 28.52 l2.48 -6.44 l4.44 -9.72 c0.6 0.32 2.16 1.2 2.16 2 c0 0.12 -0.04 0.16 -0.08 0.24 c-0.08 0.24 -0.36 0.76 -0.36 0.76 l-5.2 12.92 l0 0.04 c1.12 -0.32 1.92 -1.28 2.64 -2.12 c0.08 -0.12 0.16 -0.12 0.32 -0.12 l0.12 0 c0.24 0.08 0.4 0.28 0.4 0.52 c0 0 0 0.08 -0.04 0.12 c-0.88 1.32 -2.28 2.32 -3.88 2.8 l-0.2 0.6 l-0.68 2.6 l-0.44 1.96 l-0.24 1.84 c-0.04 0.16 -0.08 0.88 -0.08 1.08 l0 0.56 c0 1.4 0.16 3.84 1.88 4.32 c0.4 0.08 0.76 0.12 1.16 0.12 l-0.16 0.96 l-0.04 0.04 c-3.72 0 -5.96 -1 -5.96 -5.12 c0 -0.92 0.08 -1.84 0.24 -2.72 l0.4 -2.64 l0.8 -3.6 l-0.64 -0.12 l-3.12 -0.84 c-0.12 0.16 -0.4 0.84 -0.44 1 c-0.2 0.52 -0.72 2.04 -0.76 2.16 l-0.52 1.8 l-0.8 3.48 c-0.04 0.2 -1.24 0.36 -1.36 0.36 c-0.68 0 -1.52 -0.32 -1.8 -0.96 c-0.04 -0.04 -0.08 -0.08 -0.08 -0.12 l0 -0.16 c0.08 -0.36 0.32 -1.28 0.32 -1.28 l0.56 -1.84 l6.8 -18.32 c0.08 -0.2 0.12 -0.48 0.12 -0.72 c0 -0.4 -0.04 -0.8 -0.08 -1.24 c1.8 0 2.68 1.56 2.68 3.2 c0 1.04 -0.28 2 -0.68 2.96 l-3.6 8.68 z M17.532 31.16 c0 -4.48 4.48 -9.6 9.08 -9.6 c1.16 0 2.4 0.48 2.4 1.84 c0 2.8 -4.28 4.44 -6.76 4.72 c-0.2 0.72 -0.36 1.48 -0.36 2.28 c0 1.12 0.36 2.6 1.76 2.6 c1.2 0 2.44 -0.92 3.32 -1.64 c0.16 -0.16 0.76 -0.68 0.8 -0.72 l1.52 -1.52 l2.12 -2.28 l2.4 -3.04 c0.04 -0.04 0.12 -0.12 0.2 -0.16 c0.24 0 0.72 0.08 0.72 0.44 l-0.12 0.36 l-1.56 2.04 l-2.28 2.68 l-2.08 2.12 c-0.08 0.12 -0.76 0.68 -0.96 0.88 c-1.68 1.4 -3.68 2.72 -5.96 2.72 c-2.56 0 -4.24 -1.08 -4.24 -3.72 z M22.092 26.759999999999998 l0 0.04 c0.16 -0.04 0.88 -0.2 1.04 -0.24 c0.16 -0.08 0.8 -0.24 0.92 -0.28 c0.16 -0.08 0.76 -0.32 0.92 -0.36 c0.84 -0.36 2.44 -1.28 2.44 -2.4 c0 -0.4 -0.24 -0.68 -0.68 -0.68 c-1.68 0 -3.64 1.4 -4.32 2.88 c-0.12 0.32 -0.32 0.72 -0.32 1.04 z M43.864000000000004 22.84 c0.24 -0.44 0.56 -1.28 1.2 -1.28 c0.28 0 0.52 0.16 0.8 0.32 c0.48 0.32 1.4 0.76 1.4 1.52 c0 0.28 -0.16 0.52 -0.28 0.72 l-1.44 3.04 l-1.48 3.68 l-0.56 1.72 l-0.4 1.44 c-0.08 0.4 -0.16 0.92 -0.16 1.4 c0 0.08 0 0.32 0.12 0.32 c0.36 0 0.76 -0.44 0.96 -0.64 l0.56 -0.56 c0.16 -0.2 0.72 -0.8 0.8 -0.88 l2.32 -2.8 l5.16 -6.96 c0.08 -0.08 0.16 -0.24 0.32 -0.24 c0.32 0 0.64 0.16 0.64 0.56 l0 0.08 l-1.12 1.64 l-4.88 6.52 l-1.88 2.16 c-0.08 0.04 -0.88 0.88 -1.16 1.16 c-0.52 0.52 -1.76 1.64 -2.56 1.64 c-1.92 0 -2.48 -1.68 -2.48 -3.32 c0 -1.48 0.4 -2.92 0.92 -4.32 c-0.04 0 -0.08 0.04 -0.08 0.04 c-0.12 0.08 -0.52 0.44 -0.6 0.52 l-1.76 1.52 c-0.12 0.08 -0.92 0.68 -1.16 0.84 c-0.76 0.56 -1.76 1.2 -2.76 1.2 c-1.4 0 -2.08 -1.12 -2.08 -2.4 c0 -1.04 0.36 -2.04 0.8 -2.96 c1.44 -3.12 4.84 -6.8 8.6 -6.8 c0.72 0 1.32 0.24 1.84 0.72 c0.08 0.04 0.36 0.4 0.4 0.4 z M35.264 31.68 c0 0.24 0.2 0.32 0.4 0.32 c0.4 0 0.8 -0.28 1.12 -0.48 c0.16 -0.12 0.72 -0.48 0.76 -0.52 l1.52 -1.2 l2.48 -2.36 l0.92 -1.96 c0.16 -0.32 0.28 -0.72 0.28 -1.08 c0 -0.28 -0.12 -0.4 -0.4 -0.4 c-0.48 0 -1.04 0.28 -1.48 0.52 c-2.2 1.2 -4.36 3.56 -5.28 5.92 c-0.16 0.36 -0.32 0.84 -0.32 1.24 z M40.664 29.759999999999998 l0 -0.04 l0 0.04 z M62.596000000000004 17.52 c1.52 -1.76 3.64 -3.6 6.12 -3.6 c2.08 0 3.4 1.44 3.4 3.48 c0 4.92 -6.56 9.44 -11.08 10.56 l-0.04 0.04 c0.12 0.08 0.24 0.16 0.32 0.24 c1.52 1.24 1.64 3.44 1.64 5.24 l0 0.56 l-0.16 3.96 c0 1.32 0 2.64 0.4 3.92 c0.56 1.92 1.52 2.44 3.44 2.44 l0 0.04 l-0.2 1 l-0.04 0 c-4.96 0 -7.12 -2.76 -7.12 -7.36 c0 -0.48 0 -1 0.04 -1.48 l0.4 -4 c0 -2 -0.44 -2.84 -2.56 -2.92 l0 -0.04 l1.16 -2.72 c4.2 -0.32 7.64 -4.12 9.6 -7.64 c0.6 -1.16 1.08 -2.24 1.08 -3.56 c-0.08 -0.4 -0.4 -0.6 -0.8 -0.6 c-2.04 0 -3.92 1.88 -5.08 3.36 c-0.2 0.24 -0.76 1 -0.8 1.08 l-1.28 1.88 l-1.2 2.08 l-1.64 3.2 l-2.4 5.48 l-2.08 5.68 c-0.12 0.32 -0.12 0.68 -0.2 1 c-0.48 0.12 -0.92 0.32 -1.44 0.32 c-0.68 0 -1.28 -0.28 -1.68 -0.84 c-0.04 -0.08 -0.16 -0.16 -0.16 -0.32 l0.28 -1.32 l0.8 -3 l1.36 -4 l4.96 -12.08 c0.48 -1.12 0.6 -2.32 0.64 -3.52 c0.2 0 0.48 0.08 0.68 0.16 c1.4 0.36 1.84 1.92 1.84 3.2 c0 0.88 -0.2 1.8 -0.56 2.64 l-0.76 1.96 c0.92 -1.6 1.96 -3.12 3.12 -4.52 z M59.43600000000001 22.08 l0 0 z M59.43600000000001 22.12 l0 0 c-0.04 0 -0.04 0 0 0 z M59.396 22.16 l0 0 z M59.396 22.2 l0 -0.04 c-0.04 0 -0.04 0.04 0 0.04 z M68.648 31.16 c0 -4.48 4.48 -9.6 9.08 -9.6 c1.16 0 2.4 0.48 2.4 1.84 c0 2.8 -4.28 4.44 -6.76 4.72 c-0.2 0.72 -0.36 1.48 -0.36 2.28 c0 1.12 0.36 2.6 1.76 2.6 c1.2 0 2.44 -0.92 3.32 -1.64 c0.16 -0.16 0.76 -0.68 0.8 -0.72 l1.52 -1.52 l2.12 -2.28 l2.4 -3.04 c0.04 -0.04 0.12 -0.12 0.2 -0.16 c0.24 0 0.72 0.08 0.72 0.44 l-0.12 0.36 l-1.56 2.04 l-2.28 2.68 l-2.08 2.12 c-0.08 0.12 -0.76 0.68 -0.96 0.88 c-1.68 1.4 -3.68 2.72 -5.96 2.72 c-2.56 0 -4.24 -1.08 -4.24 -3.72 z M73.208 26.759999999999998 l0 0.04 c0.16 -0.04 0.88 -0.2 1.04 -0.24 c0.16 -0.08 0.8 -0.24 0.92 -0.28 c0.16 -0.08 0.76 -0.32 0.92 -0.36 c0.84 -0.36 2.44 -1.28 2.44 -2.4 c0 -0.4 -0.24 -0.68 -0.68 -0.68 c-1.68 0 -3.64 1.4 -4.32 2.88 c-0.12 0.32 -0.32 0.72 -0.32 1.04 z M89.62 23.36 c0.36 -0.2 0.8 -0.44 1.2 -0.44 s0.76 0.36 0.76 0.76 c0 0.04 0 0.04 -0.04 0.08 c0 0.12 -0.08 0.36 -0.08 0.36 l-0.88 2.76 c0.48 -0.44 0.96 -1 1.44 -1.48 c0.96 -0.92 2.56 -2.28 4.04 -2.28 c1.32 0 1.8 1.2 1.8 2.36 c0 1.32 -0.6 2.6 -1.2 3.76 l0.04 0 l0.04 -0.04 c1.84 -0.8 3.68 -1.96 4.96 -3.52 c0.16 -0.16 0.48 -0.6 0.52 -0.64 l0 -0.04 l0.08 -0.28 l0.04 0 l0.76 0.48 l0 0.04 c-1.68 2.52 -4.4 4.12 -7.16 5.28 c-0.04 0 -0.08 0.04 -0.08 0.04 c-1.36 2.04 -3.64 4.24 -6.24 4.24 c-0.8 0 -1.4 -0.44 -1.36 -1.28 l-1.36 3.72 l-0.96 2.12 c-0.04 0.12 -0.44 0.88 -0.6 1.16 c-0.08 0.08 -0.4 0.64 -0.48 0.76 c-1.2 1.84 -2.92 3.64 -5.28 3.64 l-0.32 0 c-0.72 -0.04 -1.28 -0.48 -1.36 -1.24 l0 -0.24 c0 -1.24 0.68 -2.6 1.28 -3.68 c0.16 -0.24 0.64 -1.08 0.72 -1.2 l1.04 -1.52 l1.56 -1.92 l3.36 -3.76 l2.8 -7.44 l0 -0.04 s0.68 -0.4 0.96 -0.52 z M92.30000000000001 30.84 c0.04 0 0.4 -0.12 0.48 -0.12 c0.84 -1.36 1.44 -2.68 2 -4.08 c0.04 -0.08 0.24 -0.68 0.28 -0.8 c0.12 -0.44 0.28 -0.88 0.28 -1.32 l0 -0.16 c0 -0.04 -0.04 -0.08 -0.08 -0.08 c-0.68 0 -1.36 0.6 -1.8 1 c-0.12 0.08 -0.4 0.36 -0.44 0.4 l-1.16 1.2 l-2.2 2.56 l-1.24 3.56 l0 0.04 c0.76 -1.16 2.64 -1.8 3.88 -2.2 z M79.3 43.6 c0.96 0 2.8 -2.48 3.16 -3.24 l0.56 -1.16 l0.68 -1.72 l1.2 -3.48 l-2.4 2.56 c-0.12 0.12 -0.76 0.92 -0.96 1.16 c-0.08 0.16 -0.6 0.84 -0.68 1 c-0.8 1.12 -1.8 2.92 -1.8 4.36 l0 0.24 c0 0.12 0.08 0.28 0.24 0.28 z M91.98 31.880000000000003 l0 0.04 l-0.04 0 c-0.04 0 -0.64 0.24 -0.88 0.32 c-0.12 0.08 -0.64 0.28 -0.8 0.36 c-0.32 0.16 -1.12 0.56 -1.12 1 c0 0.24 0.32 0.32 0.52 0.32 c0.68 0 1.52 -0.96 1.84 -1.4 c0.04 -0.04 0.36 -0.4 0.44 -0.56 l0.04 -0.04 c0.04 0 0.04 -0.04 0 -0.04 z M88.42 33.12 l0 -0.04 c-0.04 0 -0.04 0.04 0 0.04 z M90.54 26.880000000000003 l0 0.04 c0.04 0 0.04 -0.04 0 -0.04 z">
    </path>
  </g>
</svg>